<mxfile host="65bd71144e">
    <diagram id="-Pc59Ssiz3PWcA_nnbin" name="第 1 页">
        <mxGraphModel dx="2262" dy="991" grid="1" gridSize="10" guides="1" tooltips="1" connect="1" arrows="1" fold="1" page="1" pageScale="1" pageWidth="827" pageHeight="1169" math="0" shadow="0">
            <root>
                <mxCell id="0"/>
                <mxCell id="1" parent="0"/>
                <mxCell id="2" value="Preparing_FitHiChIP_file" style="rounded=1;whiteSpace=wrap;html=1;strokeWidth=2;fontSize=20;" parent="1" vertex="1">
                    <mxGeometry x="20" y="350" width="250" height="40" as="geometry"/>
                </mxCell>
                <mxCell id="3" value="" style="shape=curlyBracket;whiteSpace=wrap;html=1;rounded=1;strokeWidth=2;" parent="1" vertex="1">
                    <mxGeometry x="275" y="290" width="20" height="160" as="geometry"/>
                </mxCell>
                <mxCell id="4" value="HiC-Pro" style="rounded=1;whiteSpace=wrap;html=1;strokeWidth=2;fontSize=17;strokeColor=#60BCD1;" parent="1" vertex="1">
                    <mxGeometry x="305" y="274" width="235" height="30" as="geometry"/>
                </mxCell>
                <mxCell id="5" value="FitHiChIP.config" style="rounded=1;whiteSpace=wrap;html=1;strokeWidth=2;fontSize=17;strokeColor=#FEC000;" parent="1" vertex="1">
                    <mxGeometry x="305" y="352" width="235" height="30" as="geometry"/>
                </mxCell>
                <mxCell id="6" value="FitHiChIP" style="rounded=1;whiteSpace=wrap;html=1;strokeWidth=2;fontSize=17;strokeColor=#C1B4D2;" parent="1" vertex="1">
                    <mxGeometry x="305" y="430" width="235" height="30" as="geometry"/>
                </mxCell>
                <mxCell id="11" value="" style="edgeStyle=none;html=1;" edge="1" parent="1" source="7" target="2">
                    <mxGeometry relative="1" as="geometry"/>
                </mxCell>
                <mxCell id="7" value="" style="shape=curlyBracket;whiteSpace=wrap;html=1;rounded=1;flipH=1;strokeWidth=2;" vertex="1" parent="1">
                    <mxGeometry x="-70" y="290" width="20" height="160" as="geometry"/>
                </mxCell>
                <mxCell id="9" value="H3DGIP 位置&amp;nbsp;" style="rounded=1;whiteSpace=wrap;html=1;strokeWidth=2;fontSize=17;strokeColor=#60BCD1;" vertex="1" parent="1">
                    <mxGeometry x="-240" y="275" width="160" height="30" as="geometry"/>
                </mxCell>
                <mxCell id="10" value="样本名称" style="rounded=1;whiteSpace=wrap;html=1;strokeWidth=2;fontSize=17;strokeColor=#C1B4D2;" vertex="1" parent="1">
                    <mxGeometry x="-245" y="431" width="160" height="30" as="geometry"/>
                </mxCell>
                <mxCell id="12" value="&lt;font style=&quot;font-size: 20px&quot;&gt;输入&lt;/font&gt;" style="text;html=1;align=center;verticalAlign=middle;resizable=0;points=[];autosize=1;strokeColor=none;fillColor=none;" vertex="1" parent="1">
                    <mxGeometry x="-48" y="342" width="60" height="20" as="geometry"/>
                </mxCell>
                <mxCell id="15" value="" style="edgeStyle=none;html=1;" edge="1" parent="1" source="13" target="14">
                    <mxGeometry relative="1" as="geometry"/>
                </mxCell>
                <mxCell id="13" value="" style="shape=curlyBracket;whiteSpace=wrap;html=1;rounded=1;flipH=1;strokeWidth=2;" vertex="1" parent="1">
                    <mxGeometry x="550" y="287" width="20" height="160" as="geometry"/>
                </mxCell>
                <mxCell id="14" value="" style="shape=curlyBracket;whiteSpace=wrap;html=1;rounded=1;flipH=1;strokeWidth=2;direction=west;" vertex="1" parent="1">
                    <mxGeometry x="650" y="287" width="20" height="160" as="geometry"/>
                </mxCell>
                <mxCell id="16" value="FitHiChIP配置文件" style="rounded=1;whiteSpace=wrap;html=1;strokeWidth=2;fontSize=17;strokeColor=#60BCD1;" vertex="1" parent="1">
                    <mxGeometry x="675" y="273" width="235" height="30" as="geometry"/>
                </mxCell>
                <mxCell id="17" value="FitHiChIP可执行命令" style="rounded=1;whiteSpace=wrap;html=1;strokeWidth=2;fontSize=17;strokeColor=#C1B4D2;" vertex="1" parent="1">
                    <mxGeometry x="675" y="429" width="235" height="30" as="geometry"/>
                </mxCell>
                <mxCell id="18" value="&lt;font style=&quot;font-size: 20px&quot;&gt;输出&lt;/font&gt;" style="text;html=1;align=center;verticalAlign=middle;resizable=0;points=[];autosize=1;strokeColor=none;fillColor=none;" vertex="1" parent="1">
                    <mxGeometry x="580" y="342" width="60" height="20" as="geometry"/>
                </mxCell>
            </root>
        </mxGraphModel>
    </diagram>
</mxfile>